<?xml version="1.0" encoding="utf-8" ?>
<!-- Generator: Adobe Illustrator 25.0.0, SVG Export Plug-In . SVG Version: 6.00 Build 0)  -->
<svg
  version="1.1"
  id="Layer_1"
  xmlns="http://www.w3.org/2000/svg"
  xmlns:xlink="http://www.w3.org/1999/xlink"
  x="0px"
  y="0px"
  viewBox="0 0 1080 1080"
  style="enable-background:new 0 0 1080 1080;"
  xml:space="preserve"
>
<style type="text/css">
	.st0{fill:#FFFFFF;}
	.st1{fill:#6900FF;}
	.st2{fill:#1B003A;}
</style>
<path
    class="st0"
    d="M1037.25,601.88c-17.73-78.14-61.62-139.33-117.56-189.41c-4.47-4.05-9.04-8-13.68-11.88c0,0,0,0-0.09,0
	c-1.46-1.38-2.93-2.5-4.39-3.79c-6.5-5.32-13.14-10.47-19.86-15.55c26.05-47.03,57.69-135.42,27.8-259.01
	c0,0-144.83,14.69-203.6,149.03c-0.65,1.48-1.22,2.92-1.8,4.37c-24.32-12.35-48.11-24.14-70.61-35.64
	c-20.83-10.67-40.53-21.17-58.52-31.58c-13.86-8-27.45-14.89-40.88-20.74c-87.87-37.95-166.61-29.69-234.42,5.42
	c-27.28,14.21-52.8,32.76-76.46,54.37C156.75,149.3,41.35,137.51,41.35,137.51C1.14,303.84,72.52,406.37,91.41,429.85
	c-9.7,19.71-18.51,39.5-26.27,58.95c-4.13,10.33-7.92,20.65-11.53,30.72c-2.07,6.03-4.04,12.05-5.94,17.9
	c-10.07,31.41-17.21,60.93-21.17,86.75C-3.11,816.25,23.4,957.3,548.35,957.9C1101.79,958.42,1080.79,793.61,1037.25,601.88z"
  />
<ellipse class="st1" cx="677.96" cy="581.51" rx="60.91" ry="137.21" />
<ellipse class="st1" cx="366.19" cy="581.51" rx="60.91" ry="137.21" />
<path
    class="st2"
    d="M189.36,280.52c0,0-28.26-51.71-100.02-83.03l52.82,151.15C142.15,348.64,152.69,314.45,189.36,280.52z"
  />
<path
    class="st2"
    d="M841.07,358.02c0,0,40.36-67.68,38.57-160.74L771.69,317.87C771.69,317.87,806.49,329.53,841.07,358.02z"
  />
</svg>
