<?xml version="1.0" encoding="utf-8" ?>
<!-- Generator: Adobe Illustrator 25.0.0, SVG Export Plug-In . SVG Version: 6.00 Build 0)  -->
<svg
  version="1.1"
  id="Layer_1"
  xmlns="http://www.w3.org/2000/svg"
  xmlns:xlink="http://www.w3.org/1999/xlink"
  x="0px"
  y="0px"
  viewBox="0 0 1080 1080"
  style="enable-background:new 0 0 1080 1080;"
  xml:space="preserve"
>
<style type="text/css">
	.st0{fill:#6900FF;}
</style>
<path
    class="st0"
    d="M1037.25,601.88c-17.73-78.14-61.62-139.33-117.56-189.41c-4.47-4.05-9.03-8.01-13.68-11.88c0,0,0,0-0.09,0
	c-1.46-1.38-2.93-2.5-4.39-3.79c-6.5-5.31-13.14-10.47-19.85-15.54c26.05-47.04,57.68-135.42,27.8-259.01
	c0,0-144.83,14.69-203.6,149.03c-0.65,1.47-1.22,2.92-1.81,4.36c-24.31-12.35-48.11-24.14-70.61-35.64
	c-20.82-10.66-40.53-21.16-58.52-31.58c-13.85-8-27.45-14.89-40.87-20.74c-87.87-37.95-166.61-29.69-234.43,5.42
	c-27.28,14.21-52.8,32.76-76.46,54.38C156.75,149.3,41.35,137.51,41.35,137.51C1.14,303.84,72.52,406.37,91.41,429.85
	c-9.7,19.71-18.51,39.5-26.27,58.95c-4.14,10.32-7.92,20.65-11.54,30.72c-2.06,6.03-4.04,12.05-5.93,17.9
	c-10.07,31.41-17.21,60.93-21.17,86.75C-3.11,816.25,23.4,957.3,548.35,957.9C1101.79,958.42,1080.79,793.61,1037.25,601.88z
	 M142.15,348.64L89.33,197.49c71.77,31.32,100.03,83.03,100.03,83.03C152.69,314.45,142.15,348.64,142.15,348.64z M366.19,718.72
	c-33.64,0-60.91-61.43-60.91-137.21s27.27-137.21,60.91-137.21s60.92,61.43,60.92,137.21S399.83,718.72,366.19,718.72z
	 M677.96,718.72c-33.64,0-60.91-61.43-60.91-137.21s27.27-137.21,60.91-137.21c33.64,0,60.91,61.43,60.91,137.21
	S711.6,718.72,677.96,718.72z M841.07,358.02c-34.58-28.49-69.38-40.15-69.38-40.15l107.95-120.59
	C881.42,290.33,841.07,358.02,841.07,358.02z"
  />
</svg>
